<svg xmlns="http://www.w3.org/2000/svg" xmlns:xlink="http://www.w3.org/1999/xlink" width="142" zoomAndPan="magnify" viewBox="0 0 106.5 30.000001" height="40" preserveAspectRatio="xMidYMid meet" version="1.0"><defs><clipPath id="a9fbdb3756"><path d="M 3.925781 4.417969 L 24.222656 4.417969 L 24.222656 24.613281 L 3.925781 24.613281 Z M 3.925781 4.417969 " clip-rule="nonzero"/></clipPath><clipPath id="bc29856ef6"><path d="M 19.210938 4.4375 L 8.929688 4.4375 C 6.183594 4.4375 3.949219 6.835938 3.949219 9.792969 L 3.949219 19.246094 C 3.949219 22.199219 6.183594 24.597656 8.929688 24.597656 L 19.210938 24.597656 C 21.964844 24.597656 24.199219 22.199219 24.199219 19.246094 L 24.199219 9.792969 C 24.199219 6.835938 21.964844 4.4375 19.210938 4.4375 " clip-rule="nonzero"/></clipPath><clipPath id="e96c7bc389"><path d="M 0.925781 0.417969 L 21.222656 0.417969 L 21.222656 20.613281 L 0.925781 20.613281 Z M 0.925781 0.417969 " clip-rule="nonzero"/></clipPath><clipPath id="a73b524b2a"><path d="M 16.210938 0.4375 L 5.929688 0.4375 C 3.183594 0.4375 0.949219 2.835938 0.949219 5.792969 L 0.949219 15.246094 C 0.949219 18.199219 3.183594 20.597656 5.929688 20.597656 L 16.210938 20.597656 C 18.964844 20.597656 21.199219 18.199219 21.199219 15.246094 L 21.199219 5.792969 C 21.199219 2.835938 18.964844 0.4375 16.210938 0.4375 " clip-rule="nonzero"/></clipPath><clipPath id="29dc277e05"><rect x="0" width="22" y="0" height="21"/></clipPath><clipPath id="4c0bbbb809"><path d="M 3.925781 4.417969 L 23.632812 4.417969 L 23.632812 24.125 L 3.925781 24.125 Z M 3.925781 4.417969 " clip-rule="nonzero"/></clipPath><clipPath id="fac896c7e8"><path d="M 18.769531 4.4375 L 8.789062 4.4375 C 6.117188 4.4375 3.949219 6.777344 3.949219 9.660156 L 3.949219 18.882812 C 3.949219 21.765625 6.117188 24.105469 8.789062 24.105469 L 18.769531 24.105469 C 21.445312 24.105469 23.609375 21.765625 23.609375 18.882812 L 23.609375 9.660156 C 23.613281 6.777344 21.445312 4.4375 18.769531 4.4375 " clip-rule="nonzero"/></clipPath><clipPath id="b5f01d89e5"><path d="M 0.925781 0.417969 L 20.632812 0.417969 L 20.632812 20.125 L 0.925781 20.125 Z M 0.925781 0.417969 " clip-rule="nonzero"/></clipPath><clipPath id="6a1e66fb2a"><path d="M 15.769531 0.4375 L 5.789062 0.4375 C 3.117188 0.4375 0.949219 2.777344 0.949219 5.660156 L 0.949219 14.882812 C 0.949219 17.765625 3.117188 20.105469 5.789062 20.105469 L 15.769531 20.105469 C 18.445312 20.105469 20.609375 17.765625 20.609375 14.882812 L 20.609375 5.660156 C 20.613281 2.777344 18.445312 0.4375 15.769531 0.4375 " clip-rule="nonzero"/></clipPath><clipPath id="b9fc8e538e"><rect x="0" width="21" y="0" height="21"/></clipPath><clipPath id="27f9189520"><path d="M 6.574219 9.027344 L 20.988281 9.027344 L 20.988281 19.613281 L 6.574219 19.613281 Z M 6.574219 9.027344 " clip-rule="nonzero"/></clipPath><clipPath id="1ac9d849f2"><path d="M 16.523438 18.625 L 16.523438 17.703125 C 16.523438 17.597656 16.523438 17.5 16.53125 17.410156 L 16.539062 17.261719 C 16.5625 16.96875 16.757812 16.792969 17.042969 16.792969 C 17.320312 16.792969 17.507812 16.957031 17.546875 17.234375 L 17.546875 17.261719 L 17.558594 18.621094 Z M 20.3125 15.339844 C 19.851562 14.75 19.203125 14.464844 18.324219 14.464844 L 16.707031 14.464844 L 16.699219 15.410156 L 18.566406 15.441406 C 18.695312 15.441406 18.820312 15.460938 18.941406 15.503906 C 19.214844 15.589844 19.433594 15.75 19.59375 15.972656 C 19.835938 16.304688 19.960938 16.78125 19.960938 17.394531 L 19.960938 18.632812 L 18.515625 18.632812 L 18.515625 17.378906 C 18.523438 17.351562 18.523438 17.328125 18.523438 17.300781 C 18.523438 16.949219 18.414062 16.644531 18.191406 16.371094 C 17.984375 16.109375 17.726562 15.945312 17.414062 15.871094 L 17.386719 15.867188 C 17.375 15.867188 17.371094 15.863281 17.359375 15.863281 C 17.257812 15.84375 17.152344 15.828125 17.042969 15.828125 C 16.933594 15.828125 16.835938 15.839844 16.734375 15.859375 C 16.390625 15.925781 16.121094 16.09375 15.902344 16.367188 C 15.683594 16.640625 15.574219 16.945312 15.574219 17.300781 L 15.574219 17.394531 C 15.566406 17.5 15.566406 17.597656 15.566406 17.71875 L 15.566406 18.625 L 14.378906 18.621094 C 14.304688 18.597656 14.242188 18.550781 14.179688 18.5 C 13.835938 18.160156 12.929688 17.273438 11.53125 15.84375 C 11.457031 15.769531 11.386719 15.695312 11.320312 15.621094 C 11.621094 15.289062 11.902344 14.957031 12.132812 14.652344 C 13.191406 13.261719 13.503906 11.664062 13.503906 11.664062 L 15.613281 11.664062 L 15.613281 10.675781 L 10.449219 10.675781 L 10.449219 9.085938 L 9.199219 9.085938 L 9.199219 10.703125 L 6.585938 10.703125 L 6.585938 11.664062 L 12.335938 11.664062 C 12.335938 11.664062 11.996094 13.3125 10.601562 14.828125 C 9.550781 13.589844 9.261719 12.878906 9.261719 12.878906 L 7.980469 12.878906 C 7.980469 12.878906 8.222656 13.476562 9.039062 14.671875 C 9.1875 14.890625 9.476562 15.230469 9.832031 15.628906 C 8.769531 16.71875 8.183594 17.257812 8.183594 17.257812 L 8.992188 17.929688 C 8.992188 17.929688 9.730469 17.257812 10.558594 16.421875 C 11.398438 17.3125 12.371094 18.289062 12.980469 18.898438 C 13.347656 19.265625 13.816406 19.511719 14.324219 19.601562 C 14.34375 19.601562 14.378906 19.605469 14.398438 19.605469 L 20.917969 19.609375 L 20.917969 17.40625 C 20.917969 16.546875 20.71875 15.847656 20.3125 15.339844 " clip-rule="nonzero"/></clipPath><clipPath id="8b5855adaf"><path d="M 0.585938 0.0585938 L 14.984375 0.0585938 L 14.984375 10.613281 L 0.585938 10.613281 Z M 0.585938 0.0585938 " clip-rule="nonzero"/></clipPath><clipPath id="a9c1d0c086"><path d="M 10.523438 9.625 L 10.523438 8.703125 C 10.523438 8.597656 10.523438 8.5 10.53125 8.410156 L 10.539062 8.261719 C 10.5625 7.96875 10.757812 7.792969 11.042969 7.792969 C 11.320312 7.792969 11.507812 7.957031 11.546875 8.234375 L 11.546875 8.261719 L 11.558594 9.621094 Z M 14.3125 6.339844 C 13.851562 5.75 13.203125 5.464844 12.324219 5.464844 L 10.707031 5.464844 L 10.699219 6.410156 L 12.566406 6.441406 C 12.695312 6.441406 12.820312 6.460938 12.941406 6.503906 C 13.214844 6.589844 13.433594 6.75 13.59375 6.972656 C 13.835938 7.304688 13.960938 7.78125 13.960938 8.394531 L 13.960938 9.632812 L 12.515625 9.632812 L 12.515625 8.378906 C 12.523438 8.351562 12.523438 8.328125 12.523438 8.300781 C 12.523438 7.949219 12.414062 7.644531 12.191406 7.371094 C 11.984375 7.109375 11.726562 6.945312 11.414062 6.871094 L 11.386719 6.867188 C 11.375 6.867188 11.371094 6.863281 11.359375 6.863281 C 11.257812 6.84375 11.152344 6.828125 11.042969 6.828125 C 10.933594 6.828125 10.835938 6.839844 10.734375 6.859375 C 10.390625 6.925781 10.121094 7.09375 9.902344 7.367188 C 9.683594 7.640625 9.574219 7.945312 9.574219 8.300781 L 9.574219 8.394531 C 9.566406 8.5 9.566406 8.597656 9.566406 8.71875 L 9.566406 9.625 L 8.378906 9.621094 C 8.304688 9.597656 8.242188 9.550781 8.179688 9.5 C 7.835938 9.160156 6.929688 8.273438 5.53125 6.84375 C 5.457031 6.769531 5.386719 6.695312 5.320312 6.621094 C 5.621094 6.289062 5.902344 5.957031 6.132812 5.652344 C 7.191406 4.261719 7.503906 2.664062 7.503906 2.664062 L 9.613281 2.664062 L 9.613281 1.675781 L 4.449219 1.675781 L 4.449219 0.0859375 L 3.199219 0.0859375 L 3.199219 1.703125 L 0.585938 1.703125 L 0.585938 2.664062 L 6.335938 2.664062 C 6.335938 2.664062 5.996094 4.3125 4.601562 5.828125 C 3.550781 4.589844 3.261719 3.878906 3.261719 3.878906 L 1.980469 3.878906 C 1.980469 3.878906 2.222656 4.476562 3.039062 5.671875 C 3.1875 5.890625 3.476562 6.230469 3.832031 6.628906 C 2.769531 7.71875 2.183594 8.257812 2.183594 8.257812 L 2.992188 8.929688 C 2.992188 8.929688 3.730469 8.257812 4.558594 7.421875 C 5.398438 8.3125 6.371094 9.289062 6.980469 9.898438 C 7.347656 10.265625 7.816406 10.511719 8.324219 10.601562 C 8.34375 10.601562 8.378906 10.605469 8.398438 10.605469 L 14.917969 10.609375 L 14.917969 8.40625 C 14.917969 7.546875 14.71875 6.847656 14.3125 6.339844 " clip-rule="nonzero"/></clipPath><clipPath id="2bb9aa0bab"><rect x="0" width="15" y="0" height="11"/></clipPath><clipPath id="cffa6479ab"><path d="M 26.871094 9.027344 L 33.339844 9.027344 L 33.339844 19.515625 L 26.871094 19.515625 Z M 26.871094 9.027344 " clip-rule="nonzero"/></clipPath><clipPath id="a5f5fa44dd"><path d="M 33.289062 15.550781 L 33.289062 19.472656 L 31.628906 19.472656 L 31.628906 15.496094 C 31.628906 14.582031 30.992188 13.972656 30.089844 13.972656 C 29.191406 13.972656 28.554688 14.613281 28.554688 15.757812 L 28.554688 19.472656 L 26.890625 19.472656 L 26.890625 9.089844 L 28.554688 9.089844 L 28.554688 13.019531 C 29.039062 12.644531 29.644531 12.453125 30.324219 12.453125 C 32.246094 12.453125 33.285156 13.644531 33.285156 15.550781 " clip-rule="nonzero"/></clipPath><clipPath id="821db96d4e"><path d="M 0.871094 0.0585938 L 7.296875 0.0585938 L 7.296875 10.507812 L 0.871094 10.507812 Z M 0.871094 0.0585938 " clip-rule="nonzero"/></clipPath><clipPath id="e96450ef7a"><path d="M 7.289062 6.550781 L 7.289062 10.472656 L 5.628906 10.472656 L 5.628906 6.496094 C 5.628906 5.582031 4.992188 4.972656 4.089844 4.972656 C 3.191406 4.972656 2.554688 5.613281 2.554688 6.757812 L 2.554688 10.472656 L 0.890625 10.472656 L 0.890625 0.0898438 L 2.554688 0.0898438 L 2.554688 4.019531 C 3.039062 3.644531 3.644531 3.453125 4.324219 3.453125 C 6.246094 3.453125 7.285156 4.644531 7.285156 6.550781 " clip-rule="nonzero"/></clipPath><clipPath id="2c174d8bad"><rect x="0" width="8" y="0" height="11"/></clipPath><clipPath id="482dfcebc5"><path d="M 33.929688 12.359375 L 41.085938 12.359375 L 41.085938 19.613281 L 33.929688 19.613281 Z M 33.929688 12.359375 " clip-rule="nonzero"/></clipPath><clipPath id="9944f93ef1"><path d="M 37.75 18.042969 C 38.886719 18.042969 39.453125 17.035156 39.464844 16.019531 C 39.492188 14.667969 38.578125 14.015625 37.636719 14 C 36.652344 13.984375 35.644531 14.675781 35.644531 15.992188 C 35.644531 17 36.335938 18.042969 37.75 18.042969 M 41.054688 19.480469 L 39.394531 19.480469 L 39.394531 19.097656 C 38.855469 19.441406 38.1875 19.566406 37.566406 19.566406 C 35.15625 19.566406 33.964844 17.804688 33.980469 16.007812 C 33.996094 13.667969 35.863281 12.445312 37.679688 12.445312 C 39.394531 12.445312 41.054688 13.414062 41.054688 15.699219 Z M 41.054688 19.480469 " clip-rule="nonzero"/></clipPath><clipPath id="7473b12daf"><path d="M 0.929688 0.359375 L 8.085938 0.359375 L 8.085938 7.613281 L 0.929688 7.613281 Z M 0.929688 0.359375 " clip-rule="nonzero"/></clipPath><clipPath id="9084b9aedb"><path d="M 4.75 6.042969 C 5.886719 6.042969 6.453125 5.035156 6.464844 4.019531 C 6.492188 2.667969 5.578125 2.015625 4.636719 2 C 3.652344 1.984375 2.644531 2.675781 2.644531 3.992188 C 2.644531 5 3.335938 6.042969 4.75 6.042969 M 8.054688 7.480469 L 6.394531 7.480469 L 6.394531 7.097656 C 5.855469 7.441406 5.1875 7.566406 4.566406 7.566406 C 2.15625 7.566406 0.964844 5.804688 0.980469 4.007812 C 0.996094 1.667969 2.863281 0.445312 4.679688 0.445312 C 6.394531 0.445312 8.054688 1.414062 8.054688 3.699219 Z M 8.054688 7.480469 " clip-rule="nonzero"/></clipPath><clipPath id="2c4537fddd"><rect x="0" width="9" y="0" height="8"/></clipPath><clipPath id="ef058e80ee"><path d="M 41.761719 9.085938 L 43.425781 9.085938 L 43.425781 19.488281 L 41.761719 19.488281 Z M 41.761719 9.085938 " clip-rule="nonzero"/></clipPath><clipPath id="6422db0cfd"><path d="M 0.761719 0.0859375 L 2.425781 0.0859375 L 2.425781 10.488281 L 0.761719 10.488281 Z M 0.761719 0.0859375 " clip-rule="nonzero"/></clipPath><clipPath id="8fff0f33e5"><rect x="0" width="3" y="0" height="11"/></clipPath><clipPath id="19d3b13b82"><path d="M 44.125 12.359375 L 51.285156 12.359375 L 51.285156 19.613281 L 44.125 19.613281 Z M 44.125 12.359375 " clip-rule="nonzero"/></clipPath><clipPath id="c7993fcc1b"><path d="M 47.894531 18.042969 C 49.03125 18.042969 49.597656 17.035156 49.609375 16.019531 C 49.636719 14.667969 48.722656 14.015625 47.78125 14 C 46.796875 13.984375 45.789062 14.675781 45.789062 15.992188 C 45.789062 17 46.480469 18.042969 47.894531 18.042969 M 51.199219 19.480469 L 49.542969 19.480469 L 49.542969 19.097656 C 49.003906 19.441406 48.339844 19.566406 47.714844 19.566406 C 45.308594 19.566406 44.117188 17.804688 44.132812 16.007812 C 44.144531 13.667969 46.015625 12.445312 47.828125 12.445312 C 49.542969 12.445312 51.207031 13.414062 51.207031 15.699219 Z M 51.199219 19.480469 " clip-rule="nonzero"/></clipPath><clipPath id="ddb9aa76cc"><path d="M 0.125 0.359375 L 7.285156 0.359375 L 7.285156 7.613281 L 0.125 7.613281 Z M 0.125 0.359375 " clip-rule="nonzero"/></clipPath><clipPath id="bd59258efa"><path d="M 3.894531 6.042969 C 5.03125 6.042969 5.597656 5.035156 5.609375 4.019531 C 5.636719 2.667969 4.722656 2.015625 3.78125 2 C 2.796875 1.984375 1.789062 2.675781 1.789062 3.992188 C 1.789062 5 2.480469 6.042969 3.894531 6.042969 M 7.199219 7.480469 L 5.542969 7.480469 L 5.542969 7.097656 C 5.003906 7.441406 4.339844 7.566406 3.714844 7.566406 C 1.308594 7.566406 0.117188 5.804688 0.132812 4.007812 C 0.144531 1.667969 2.015625 0.445312 3.828125 0.445312 C 5.542969 0.445312 7.207031 1.414062 7.207031 3.699219 Z M 7.199219 7.480469 " clip-rule="nonzero"/></clipPath><clipPath id="dccfc56a14"><rect x="0" width="8" y="0" height="8"/></clipPath><clipPath id="f47310f3c5"><path d="M 51.871094 9.710938 L 55.109375 9.710938 L 55.109375 19.613281 L 51.871094 19.613281 Z M 51.871094 9.710938 " clip-rule="nonzero"/></clipPath><clipPath id="c0143e8ee9"><path d="M 55.011719 19.570312 C 53.144531 19.570312 51.898438 18.363281 51.898438 16.234375 L 51.898438 9.777344 L 53.558594 9.777344 L 53.558594 12.546875 L 55.011719 12.546875 L 55.011719 14.070312 L 53.574219 14.070312 L 53.574219 16.328125 C 53.574219 17.265625 54.042969 18.042969 55.011719 18.042969 Z M 55.011719 19.570312 " clip-rule="nonzero"/></clipPath><clipPath id="b4de2da176"><path d="M 0.875 0.753906 L 4.109375 0.753906 L 4.109375 10.613281 L 0.875 10.613281 Z M 0.875 0.753906 " clip-rule="nonzero"/></clipPath><clipPath id="c30e2f46d0"><path d="M 4.011719 10.570312 C 2.144531 10.570312 0.898438 9.363281 0.898438 7.234375 L 0.898438 0.777344 L 2.558594 0.777344 L 2.558594 3.546875 L 4.011719 3.546875 L 4.011719 5.070312 L 2.574219 5.070312 L 2.574219 7.328125 C 2.574219 8.265625 3.042969 9.042969 4.011719 9.042969 Z M 4.011719 10.570312 " clip-rule="nonzero"/></clipPath><clipPath id="f089c11f37"><rect x="0" width="5" y="0" height="11"/></clipPath><clipPath id="9dd811d5b4"><path d="M 55.5 12.457031 L 59.714844 12.457031 L 59.714844 19.515625 L 55.5 19.515625 Z M 55.5 12.457031 " clip-rule="nonzero"/></clipPath><clipPath id="5377734608"><path d="M 55.574219 19.472656 L 55.574219 14.429688 C 55.574219 13.335938 56.269531 12.546875 57.597656 12.546875 L 59.675781 12.546875 L 59.675781 14.070312 L 57.84375 14.070312 C 57.402344 14.070312 57.238281 14.289062 57.238281 14.621094 L 57.238281 19.46875 Z M 55.574219 19.472656 " clip-rule="nonzero"/></clipPath><clipPath id="a9d1e004ba"><path d="M 0.5 0.542969 L 4.714844 0.542969 L 4.714844 7.507812 L 0.5 7.507812 Z M 0.5 0.542969 " clip-rule="nonzero"/></clipPath><clipPath id="4fe9152064"><path d="M 0.574219 7.472656 L 0.574219 2.429688 C 0.574219 1.335938 1.269531 0.546875 2.597656 0.546875 L 4.675781 0.546875 L 4.675781 2.070312 L 2.84375 2.070312 C 2.402344 2.070312 2.238281 2.289062 2.238281 2.621094 L 2.238281 7.46875 Z M 0.574219 7.472656 " clip-rule="nonzero"/></clipPath><clipPath id="83bc2453b2"><rect x="0" width="5" y="0" height="8"/></clipPath><clipPath id="aef0b6b74c"><path d="M 60.109375 12.359375 L 67.363281 12.359375 L 67.363281 19.613281 L 60.109375 19.613281 Z M 60.109375 12.359375 " clip-rule="nonzero"/></clipPath><clipPath id="2a572f6208"><path d="M 63.972656 18.042969 C 65.109375 18.042969 65.671875 17.035156 65.6875 16.019531 C 65.710938 14.667969 64.800781 14.015625 63.855469 14 C 62.875 13.984375 61.863281 14.675781 61.863281 15.992188 C 61.863281 17 62.558594 18.042969 63.972656 18.042969 M 67.277344 19.480469 L 65.617188 19.480469 L 65.617188 19.097656 C 65.078125 19.441406 64.410156 19.566406 63.789062 19.566406 C 61.378906 19.566406 60.1875 17.804688 60.203125 16.007812 C 60.21875 13.667969 62.085938 12.445312 63.902344 12.445312 C 65.617188 12.445312 67.28125 13.414062 67.28125 15.699219 Z M 67.277344 19.480469 " clip-rule="nonzero"/></clipPath><clipPath id="90b5f20c15"><path d="M 0.109375 0.359375 L 7.363281 0.359375 L 7.363281 7.613281 L 0.109375 7.613281 Z M 0.109375 0.359375 " clip-rule="nonzero"/></clipPath><clipPath id="2405dff391"><path d="M 3.972656 6.042969 C 5.109375 6.042969 5.671875 5.035156 5.6875 4.019531 C 5.710938 2.667969 4.800781 2.015625 3.855469 2 C 2.875 1.984375 1.863281 2.675781 1.863281 3.992188 C 1.863281 5 2.558594 6.042969 3.972656 6.042969 M 7.277344 7.480469 L 5.617188 7.480469 L 5.617188 7.097656 C 5.078125 7.441406 4.410156 7.566406 3.789062 7.566406 C 1.378906 7.566406 0.1875 5.804688 0.203125 4.007812 C 0.21875 1.667969 2.085938 0.445312 3.902344 0.445312 C 5.617188 0.445312 7.28125 1.414062 7.28125 3.699219 Z M 7.277344 7.480469 " clip-rule="nonzero"/></clipPath><clipPath id="caa174f745"><rect x="0" width="8" y="0" height="8"/></clipPath><clipPath id="0535034d1b"><path d="M 67.953125 12.359375 L 74.421875 12.359375 L 74.421875 19.515625 L 67.953125 19.515625 Z M 67.953125 12.359375 " clip-rule="nonzero"/></clipPath><clipPath id="31b6736f43"><path d="M 74.367188 15.734375 L 74.367188 19.472656 L 72.707031 19.472656 L 72.707031 15.496094 C 72.707031 14.582031 72.070312 13.972656 71.167969 13.972656 C 70.269531 13.972656 69.632812 14.582031 69.632812 15.496094 L 69.632812 19.472656 L 67.96875 19.472656 L 67.96875 15.734375 C 67.96875 13.683594 69.132812 12.453125 71.167969 12.453125 C 73.207031 12.453125 74.367188 13.683594 74.367188 15.734375 " clip-rule="nonzero"/></clipPath><clipPath id="69389e989d"><path d="M 0.953125 0.359375 L 7.40625 0.359375 L 7.40625 7.507812 L 0.953125 7.507812 Z M 0.953125 0.359375 " clip-rule="nonzero"/></clipPath><clipPath id="03bcd338f2"><path d="M 7.367188 3.734375 L 7.367188 7.472656 L 5.707031 7.472656 L 5.707031 3.496094 C 5.707031 2.582031 5.070312 1.972656 4.167969 1.972656 C 3.269531 1.972656 2.632812 2.582031 2.632812 3.496094 L 2.632812 7.472656 L 0.96875 7.472656 L 0.96875 3.734375 C 0.96875 1.683594 2.132812 0.453125 4.167969 0.453125 C 6.207031 0.453125 7.367188 1.683594 7.367188 3.734375 " clip-rule="nonzero"/></clipPath><clipPath id="42b8dff318"><rect x="0" width="8" y="0" height="8"/></clipPath><clipPath id="08bad1476a"><path d="M 74.914062 12.359375 L 80.796875 12.359375 L 80.796875 19.613281 L 74.914062 19.613281 Z M 74.914062 12.359375 " clip-rule="nonzero"/></clipPath><clipPath id="82d32e09ae"><path d="M 80.75 17.488281 C 80.75 18.636719 79.90625 19.609375 77.675781 19.609375 C 76.707031 19.609375 75.554688 19.417969 74.945312 19.085938 L 75.597656 17.632812 C 76.066406 17.871094 77.152344 18.085938 77.675781 18.085938 C 78.714844 18.085938 79.089844 17.917969 79.089844 17.535156 C 79.089844 16.621094 75.058594 16.980469 75.058594 14.574219 C 75.058594 13.035156 76.429688 12.414062 78.074219 12.425781 C 79.015625 12.441406 79.722656 12.632812 80.359375 12.964844 L 79.707031 14.40625 C 79.347656 14.167969 78.597656 13.949219 77.730469 13.949219 C 77.273438 13.949219 76.722656 14.089844 76.722656 14.40625 C 76.722656 15.359375 80.75 15.027344 80.75 17.496094 " clip-rule="nonzero"/></clipPath><clipPath id="25e7079334"><path d="M 0.914062 0.359375 L 6.796875 0.359375 L 6.796875 7.613281 L 0.914062 7.613281 Z M 0.914062 0.359375 " clip-rule="nonzero"/></clipPath><clipPath id="049286a101"><path d="M 6.75 5.488281 C 6.75 6.636719 5.90625 7.609375 3.675781 7.609375 C 2.707031 7.609375 1.554688 7.417969 0.945312 7.085938 L 1.597656 5.632812 C 2.066406 5.871094 3.152344 6.085938 3.675781 6.085938 C 4.714844 6.085938 5.089844 5.917969 5.089844 5.535156 C 5.089844 4.621094 1.058594 4.980469 1.058594 2.574219 C 1.058594 1.035156 2.429688 0.414062 4.074219 0.425781 C 5.015625 0.441406 5.722656 0.632812 6.359375 0.964844 L 5.707031 2.40625 C 5.347656 2.167969 4.597656 1.949219 3.730469 1.949219 C 3.273438 1.949219 2.722656 2.089844 2.722656 2.40625 C 2.722656 3.359375 6.75 3.027344 6.75 5.496094 " clip-rule="nonzero"/></clipPath><clipPath id="78a5fb8021"><rect x="0" width="7" y="0" height="8"/></clipPath><clipPath id="e3bc2d412e"><path d="M 81.3125 9.085938 L 82.976562 9.085938 L 82.976562 19.488281 L 81.3125 19.488281 Z M 81.3125 9.085938 " clip-rule="nonzero"/></clipPath><clipPath id="535830a114"><path d="M 0.3125 0.0859375 L 1.976562 0.0859375 L 1.976562 10.488281 L 0.3125 10.488281 Z M 0.3125 0.0859375 " clip-rule="nonzero"/></clipPath><clipPath id="3293b2bfc0"><rect x="0" width="2" y="0" height="11"/></clipPath><clipPath id="1d987833c2"><path d="M 83.640625 12.359375 L 90.796875 12.359375 L 90.796875 19.613281 L 83.640625 19.613281 Z M 83.640625 12.359375 " clip-rule="nonzero"/></clipPath><clipPath id="31a9cf1b1f"><path d="M 87.449219 18.042969 C 88.585938 18.042969 89.15625 17.035156 89.164062 16.019531 C 89.195312 14.667969 88.28125 14.015625 87.335938 14 C 86.351562 13.984375 85.34375 14.675781 85.34375 15.992188 C 85.34375 17 86.035156 18.042969 87.449219 18.042969 M 90.757812 19.480469 L 89.09375 19.480469 L 89.09375 19.097656 C 88.554688 19.441406 87.890625 19.566406 87.265625 19.566406 C 84.859375 19.566406 83.667969 17.804688 83.683594 16.007812 C 83.695312 13.667969 85.566406 12.445312 87.378906 12.445312 C 89.09375 12.445312 90.757812 13.414062 90.757812 15.699219 Z M 90.757812 19.480469 " clip-rule="nonzero"/></clipPath><clipPath id="665c48410a"><path d="M 0.640625 0.359375 L 7.796875 0.359375 L 7.796875 7.613281 L 0.640625 7.613281 Z M 0.640625 0.359375 " clip-rule="nonzero"/></clipPath><clipPath id="c3e4bb3098"><path d="M 4.449219 6.042969 C 5.585938 6.042969 6.15625 5.035156 6.164062 4.019531 C 6.195312 2.667969 5.28125 2.015625 4.335938 2 C 3.351562 1.984375 2.34375 2.675781 2.34375 3.992188 C 2.34375 5 3.035156 6.042969 4.449219 6.042969 M 7.757812 7.480469 L 6.09375 7.480469 L 6.09375 7.097656 C 5.554688 7.441406 4.890625 7.566406 4.265625 7.566406 C 1.859375 7.566406 0.667969 5.804688 0.683594 4.007812 C 0.695312 1.667969 2.566406 0.445312 4.378906 0.445312 C 6.09375 0.445312 7.757812 1.414062 7.757812 3.699219 Z M 7.757812 7.480469 " clip-rule="nonzero"/></clipPath><clipPath id="4f17cc35a0"><rect x="0" width="8" y="0" height="8"/></clipPath><clipPath id="95a15f2f1f"><path d="M 91.386719 9.710938 L 94.621094 9.710938 L 94.621094 19.613281 L 91.386719 19.613281 Z M 91.386719 9.710938 " clip-rule="nonzero"/></clipPath><clipPath id="8fff1cdf19"><path d="M 94.5625 19.570312 C 92.695312 19.570312 91.449219 18.363281 91.449219 16.234375 L 91.449219 9.777344 L 93.109375 9.777344 L 93.109375 12.546875 L 94.5625 12.546875 L 94.5625 14.070312 L 93.125 14.070312 L 93.125 16.328125 C 93.125 17.265625 93.59375 18.042969 94.5625 18.042969 Z M 94.5625 19.570312 " clip-rule="nonzero"/></clipPath><clipPath id="e3df31862b"><path d="M 0.386719 0.753906 L 3.609375 0.753906 L 3.609375 10.613281 L 0.386719 10.613281 Z M 0.386719 0.753906 " clip-rule="nonzero"/></clipPath><clipPath id="0bf9e82707"><path d="M 3.5625 10.570312 C 1.695312 10.570312 0.449219 9.363281 0.449219 7.234375 L 0.449219 0.777344 L 2.109375 0.777344 L 2.109375 3.546875 L 3.5625 3.546875 L 3.5625 5.070312 L 2.125 5.070312 L 2.125 7.328125 C 2.125 8.265625 2.59375 9.042969 3.5625 9.042969 Z M 3.5625 10.570312 " clip-rule="nonzero"/></clipPath><clipPath id="e2753fa040"><rect x="0" width="4" y="0" height="11"/></clipPath><clipPath id="6f38b00656"><path d="M 94.816406 12.359375 L 102.074219 12.359375 L 102.074219 19.613281 L 94.816406 19.613281 Z M 94.816406 12.359375 " clip-rule="nonzero"/></clipPath><clipPath id="f856c12188"><path d="M 100.269531 15.121094 C 100.007812 14.445312 99.40625 13.929688 98.539062 13.929688 C 97.570312 13.929688 96.945312 14.460938 96.667969 15.121094 Z M 102.066406 17.042969 C 101.707031 18.429688 100.574219 19.574219 98.539062 19.574219 C 95.992188 19.574219 94.871094 17.792969 94.871094 15.992188 C 94.871094 14.191406 95.992188 12.40625 98.539062 12.40625 C 100.945312 12.40625 102.066406 14.191406 102.066406 15.992188 C 102.066406 16.160156 102.039062 16.335938 102.027344 16.503906 L 96.554688 16.503906 C 96.75 17.335938 97.402344 18.058594 98.53125 18.058594 C 99.40625 18.058594 100.015625 17.628906 100.316406 17.050781 Z M 102.066406 17.042969 " clip-rule="nonzero"/></clipPath><clipPath id="84ef41f9ec"><path d="M 0.84375 0.359375 L 8.074219 0.359375 L 8.074219 7.613281 L 0.84375 7.613281 Z M 0.84375 0.359375 " clip-rule="nonzero"/></clipPath><clipPath id="41116790aa"><path d="M 6.269531 3.121094 C 6.007812 2.445312 5.40625 1.929688 4.539062 1.929688 C 3.570312 1.929688 2.945312 2.460938 2.667969 3.121094 Z M 8.066406 5.042969 C 7.707031 6.429688 6.574219 7.574219 4.539062 7.574219 C 1.992188 7.574219 0.871094 5.792969 0.871094 3.992188 C 0.871094 2.191406 1.992188 0.40625 4.539062 0.40625 C 6.945312 0.40625 8.066406 2.191406 8.066406 3.992188 C 8.066406 4.160156 8.039062 4.335938 8.027344 4.503906 L 2.554688 4.503906 C 2.75 5.335938 3.402344 6.058594 4.53125 6.058594 C 5.40625 6.058594 6.015625 5.628906 6.316406 5.050781 Z M 8.066406 5.042969 " clip-rule="nonzero"/></clipPath><clipPath id="2b31aedde5"><rect x="0" width="9" y="0" height="8"/></clipPath></defs><g clip-path="url(#a9fbdb3756)"><g clip-path="url(#bc29856ef6)"><g transform="matrix(1, 0, 0, 1, 3, 4)"><g clip-path="url(#29dc277e05)"><g clip-path="url(#e96c7bc389)"><g clip-path="url(#a73b524b2a)"><rect x="-26.43" width="153.36" fill="#e2e5ed" height="43.200001" y="-10.6" fill-opacity="1"/></g></g></g></g></g></g><g clip-path="url(#4c0bbbb809)"><g clip-path="url(#fac896c7e8)"><g transform="matrix(1, 0, 0, 1, 3, 4)"><g clip-path="url(#b9fc8e538e)"><g clip-path="url(#b5f01d89e5)"><g clip-path="url(#6a1e66fb2a)"><rect x="-26.43" width="153.36" fill="#076e32" height="43.200001" y="-10.6" fill-opacity="1"/></g></g></g></g></g></g><g clip-path="url(#27f9189520)"><g clip-path="url(#1ac9d849f2)"><g transform="matrix(1, 0, 0, 1, 6, 9)"><g clip-path="url(#2bb9aa0bab)"><g clip-path="url(#8b5855adaf)"><g clip-path="url(#a9c1d0c086)"><rect x="-29.43" width="153.36" fill="#ffffff" height="43.200001" y="-15.6" fill-opacity="1"/></g></g></g></g></g></g><g clip-path="url(#cffa6479ab)"><g clip-path="url(#a5f5fa44dd)"><g transform="matrix(1, 0, 0, 1, 26, 9)"><g clip-path="url(#2c174d8bad)"><g clip-path="url(#821db96d4e)"><g clip-path="url(#e96450ef7a)"><rect x="-49.43" width="153.36" fill="#212a37" height="43.200001" y="-15.6" fill-opacity="1"/></g></g></g></g></g></g><g clip-path="url(#482dfcebc5)"><g clip-path="url(#9944f93ef1)"><g transform="matrix(1, 0, 0, 1, 33, 12)"><g clip-path="url(#2c4537fddd)"><g clip-path="url(#7473b12daf)"><g clip-path="url(#9084b9aedb)"><rect x="-56.43" width="153.36" fill="#212a37" height="43.200001" y="-18.6" fill-opacity="1"/></g></g></g></g></g></g><g clip-path="url(#ef058e80ee)"><g transform="matrix(1, 0, 0, 1, 41, 9)"><g clip-path="url(#8fff0f33e5)"><g clip-path="url(#6422db0cfd)"><rect x="-64.43" width="153.36" fill="#212a37" height="43.200001" y="-15.6" fill-opacity="1"/></g></g></g></g><g clip-path="url(#19d3b13b82)"><g clip-path="url(#c7993fcc1b)"><g transform="matrix(1, 0, 0, 1, 44, 12)"><g clip-path="url(#dccfc56a14)"><g clip-path="url(#ddb9aa76cc)"><g clip-path="url(#bd59258efa)"><rect x="-67.43" width="153.36" fill="#212a37" height="43.200001" y="-18.6" fill-opacity="1"/></g></g></g></g></g></g><g clip-path="url(#f47310f3c5)"><g clip-path="url(#c0143e8ee9)"><g transform="matrix(1, 0, 0, 1, 51, 9)"><g clip-path="url(#f089c11f37)"><g clip-path="url(#b4de2da176)"><g clip-path="url(#c30e2f46d0)"><rect x="-74.43" width="153.36" fill="#212a37" height="43.200001" y="-15.6" fill-opacity="1"/></g></g></g></g></g></g><g clip-path="url(#9dd811d5b4)"><g clip-path="url(#5377734608)"><g transform="matrix(1, 0, 0, 1, 55, 12)"><g clip-path="url(#83bc2453b2)"><g clip-path="url(#a9d1e004ba)"><g clip-path="url(#4fe9152064)"><rect x="-78.43" width="153.36" fill="#212a37" height="43.200001" y="-18.6" fill-opacity="1"/></g></g></g></g></g></g><g clip-path="url(#aef0b6b74c)"><g clip-path="url(#2a572f6208)"><g transform="matrix(1, 0, 0, 1, 60, 12)"><g clip-path="url(#caa174f745)"><g clip-path="url(#90b5f20c15)"><g clip-path="url(#2405dff391)"><rect x="-83.43" width="153.36" fill="#212a37" height="43.200001" y="-18.6" fill-opacity="1"/></g></g></g></g></g></g><g clip-path="url(#0535034d1b)"><g clip-path="url(#31b6736f43)"><g transform="matrix(1, 0, 0, 1, 67, 12)"><g clip-path="url(#42b8dff318)"><g clip-path="url(#69389e989d)"><g clip-path="url(#03bcd338f2)"><rect x="-90.43" width="153.36" fill="#212a37" height="43.200001" y="-18.6" fill-opacity="1"/></g></g></g></g></g></g><g clip-path="url(#08bad1476a)"><g clip-path="url(#82d32e09ae)"><g transform="matrix(1, 0, 0, 1, 74, 12)"><g clip-path="url(#78a5fb8021)"><g clip-path="url(#25e7079334)"><g clip-path="url(#049286a101)"><rect x="-97.43" width="153.36" fill="#212a37" height="43.200001" y="-18.6" fill-opacity="1"/></g></g></g></g></g></g><g clip-path="url(#e3bc2d412e)"><g transform="matrix(1, 0, 0, 1, 81, 9)"><g clip-path="url(#3293b2bfc0)"><g clip-path="url(#535830a114)"><rect x="-104.43" width="153.36" fill="#212a37" height="43.200001" y="-15.6" fill-opacity="1"/></g></g></g></g><g clip-path="url(#1d987833c2)"><g clip-path="url(#31a9cf1b1f)"><g transform="matrix(1, 0, 0, 1, 83, 12)"><g clip-path="url(#4f17cc35a0)"><g clip-path="url(#665c48410a)"><g clip-path="url(#c3e4bb3098)"><rect x="-106.43" width="153.36" fill="#212a37" height="43.200001" y="-18.6" fill-opacity="1"/></g></g></g></g></g></g><g clip-path="url(#95a15f2f1f)"><g clip-path="url(#8fff1cdf19)"><g transform="matrix(1, 0, 0, 1, 91, 9)"><g clip-path="url(#e2753fa040)"><g clip-path="url(#e3df31862b)"><g clip-path="url(#0bf9e82707)"><rect x="-114.43" width="153.36" fill="#212a37" height="43.200001" y="-15.6" fill-opacity="1"/></g></g></g></g></g></g><g clip-path="url(#6f38b00656)"><g clip-path="url(#f856c12188)"><g transform="matrix(1, 0, 0, 1, 94, 12)"><g clip-path="url(#2b31aedde5)"><g clip-path="url(#84ef41f9ec)"><g clip-path="url(#41116790aa)"><rect x="-117.43" width="153.36" fill="#212a37" height="43.200001" y="-18.6" fill-opacity="1"/></g></g></g></g></g></g></svg>